<?xml version="1.0" encoding="utf-8"?>
<!-- Generator: Adobe Illustrator 15.0.0, SVG Export Plug-In . SVG Version: 6.00 Build 0)  -->
<!DOCTYPE svg PUBLIC "-//W3C//DTD SVG 1.1//EN" "http://www.w3.org/Graphics/SVG/1.1/DTD/svg11.dtd">
<svg version="1.1" id="Layer_1" xmlns="http://www.w3.org/2000/svg" xmlns:xlink="http://www.w3.org/1999/xlink" x="0px" y="0px"
	 width="225.416px" height="55.857px" viewBox="0 0 225.416 55.857" enable-background="new 0 0 225.416 55.857"
	 xml:space="preserve">
<g enable-background="new    ">
	<path fill="#17BAB8" d="M24.539,13.499c-0.42-2.64-2.64-6.539-8.34-6.539c-4.32,0-7.32,2.88-7.32,6.119c0,2.7,1.68,4.74,4.98,5.46
		l6.12,1.26c7.5,1.5,11.52,6.24,11.52,12.239c0,6.601-5.34,12.9-15.059,12.9c-10.8,0-15.78-6.96-16.439-13.08l6.72-1.92
		c0.42,4.44,3.6,8.52,9.72,8.52c5.1,0,7.739-2.58,7.739-5.88c0-2.76-2.04-4.979-5.7-5.76l-6-1.26C6,24.239,1.68,19.979,1.68,13.619
		c0-7.14,6.54-13.02,14.459-13.02c10.02,0,13.919,6.12,14.879,10.859L24.539,13.499z"/>
	<path fill="#17BAB8" d="M47.099,14.819h6.06v6.18h-6.06v13.56c0,2.58,1.14,3.66,3.72,3.66c0.96,0,2.1-0.181,2.399-0.24v5.76
		c-0.42,0.18-1.74,0.66-4.26,0.66c-5.399,0-8.759-3.24-8.759-8.7V20.999h-5.4v-6.18h1.5c3.12,0,4.5-1.98,4.5-4.56V5.88h6.3V14.819z"
		/>
	<path fill="#17BAB8" d="M88.019,29.398c0,9-6.419,15.54-15.179,15.54c-8.7,0-15.12-6.54-15.12-15.54
		c0-8.939,6.42-15.479,15.12-15.479C81.599,13.919,88.019,20.459,88.019,29.398z M80.999,29.398c0-6.06-3.84-9.18-8.16-9.18
		c-4.26,0-8.16,3.12-8.16,9.18s3.9,9.3,8.16,9.3C77.159,38.698,80.999,35.519,80.999,29.398z"/>
	<path fill="#17BAB8" d="M99.419,29.398c0,5.88,3.779,9.18,8.16,9.18c4.559,0,6.659-3.18,7.319-5.399l6.12,2.22
		c-1.381,4.56-5.76,9.54-13.439,9.54c-8.58,0-15.12-6.66-15.12-15.54c0-8.999,6.54-15.479,14.939-15.479
		c7.86,0,12.18,4.92,13.38,9.6l-6.24,2.28c-0.66-2.58-2.64-5.46-7.08-5.46C103.199,20.339,99.419,23.519,99.419,29.398z"/>
	<path fill="#17BAB8" d="M142.558,27.179l12.239,16.859h-8.52l-8.579-11.939l-3.601,3.779v8.16h-6.899V0.6h6.899v26.039
		l11.22-11.819h9.24L142.558,27.179z"/>
	<path fill="#17BAB8" d="M163.257,0c2.521,0,4.561,2.04,4.561,4.56s-2.04,4.5-4.561,4.5c-2.459,0-4.499-1.98-4.499-4.5
		S160.798,0,163.257,0z M159.838,44.038V14.819h6.899v29.219H159.838z"/>
	<path fill="#17BAB8" d="M184.378,10.979v3.84h6.779v6.06h-6.779v23.159h-7.021V20.879h-5.1v-6.06h5.1V10.8
		c0-6.54,4.2-10.5,10.2-10.5c1.739,0,3.18,0.36,3.659,0.6v5.94c-0.42-0.12-1.2-0.3-2.52-0.3
		C186.837,6.54,184.378,7.38,184.378,10.979z"/>
	<path fill="#17BAB8" d="M199.376,55.857l7.02-15.299l-12.479-25.739h7.859l8.399,18.479l7.86-18.479h7.379l-18.6,41.038H199.376z"
		/>
</g>
</svg>
